<?xml version="1.0" encoding="UTF-8" standalone="no"?>
<!-- Created with Inkscape (http://www.inkscape.org/) -->

<svg
   xmlns:dc="http://purl.org/dc/elements/1.1/"
   xmlns:cc="http://creativecommons.org/ns#"
   xmlns:rdf="http://www.w3.org/1999/02/22-rdf-syntax-ns#"
   xmlns:svg="http://www.w3.org/2000/svg"
   xmlns="http://www.w3.org/2000/svg"
   xmlns:sodipodi="http://sodipodi.sourceforge.net/DTD/sodipodi-0.dtd"
   xmlns:inkscape="http://www.inkscape.org/namespaces/inkscape"
   width="347.24408"
   height="240.94487"
   id="svg2"
   version="1.1"
   inkscape:version="0.48.3.1 r9886"
   sodipodi:docname="boden.svg">
  <defs
     id="defs4" />
  <sodipodi:namedview
     id="base"
     pagecolor="#ffffff"
     bordercolor="#666666"
     borderopacity="1.0"
     inkscape:pageopacity="0.0"
     inkscape:pageshadow="2"
     inkscape:zoom="1.5730123"
     inkscape:cx="222.38285"
     inkscape:cy="137.77195"
     inkscape:document-units="mm"
     inkscape:current-layer="layer1"
     showgrid="true"
     inkscape:window-width="1366"
     inkscape:window-height="721"
     inkscape:window-x="-2"
     inkscape:window-y="-3"
     inkscape:window-maximized="1"
     units="mm"
     showguides="true"
     inkscape:guide-bbox="true">
    <inkscape:grid
       type="xygrid"
       id="grid2985"
       empspacing="5"
       visible="true"
       enabled="true"
       snapvisiblegridlinesonly="true"
       units="mm"
       spacingx="1mm"
       spacingy="1mm"
       dotted="true" />
  </sodipodi:namedview>
  <metadata
     id="metadata7">
    <rdf:RDF>
      <cc:Work
         rdf:about="">
        <dc:format>image/svg+xml</dc:format>
        <dc:type
           rdf:resource="http://purl.org/dc/dcmitype/StillImage" />
        <dc:title />
      </cc:Work>
    </rdf:RDF>
  </metadata>
  <g
     inkscape:label="Layer 1"
     inkscape:groupmode="layer"
     id="layer1"
     transform="translate(0,-811.41731)">
    <rect
       style="fill:none;stroke:#000000;stroke-width:1.10569978;stroke-linecap:square;stroke-miterlimit:4;stroke-opacity:1;stroke-dasharray:none;stroke-dashoffset:0"
       id="rect2987"
       width="346.1384"
       height="239.83919"
       x="0.55284989"
       y="811.97021" />
    <path
       style="fill:none;stroke:#000000;stroke-width:1.09466326;stroke-linecap:square;stroke-miterlimit:4;stroke-opacity:1;stroke-dasharray:none;stroke-dashoffset:0"
       d="m 25.135677,833.90296 0,190.25004 296.531253,0 0,-190.25004 -296.531253,0 z m 11.09375,11.0625 276.375003,0 0,170.09374 -276.375003,0 0,-170.09374 z"
       id="rect3038-7"
       inkscape:connector-curvature="0" />
    <path
       style="fill:none;stroke:#000000;stroke-width:1.06558323;stroke-linecap:square;stroke-miterlimit:4;stroke-opacity:1;stroke-dasharray:none;stroke-dashoffset:0"
       d="m 89.4375,917.54231 c -3.130348,0 -5.65625,2.5259 -5.65625,5.65625 l -0.03125,0 0,18.6875 c -6.711187,2.3504 -11.53125,8.73635 -11.53125,16.25 0,9.50865 7.710103,17.21875 17.21875,17.21875 9.508647,0 17.21875,-7.7101 17.21875,-17.21875 0,-7.5033 -4.80329,-13.86048 -11.5,-16.21875 l 0,-18.71875 -0.03125,0 c 0,-3.13035 -2.557152,-5.65625 -5.6875,-5.65625 z"
       id="path3060"
       inkscape:connector-curvature="0" />
    <path
       style="fill:none;stroke:#000000;stroke-width:1.06558323;stroke-linecap:square;stroke-miterlimit:4;stroke-opacity:1;stroke-dasharray:none;stroke-dashoffset:0"
       d="m 264.02923,917.54231 c -3.13035,0 -5.65625,2.5259 -5.65625,5.65625 l -0.0312,0 0,18.6875 c -6.71119,2.3504 -11.53125,8.73635 -11.53125,16.25 0,9.50865 7.7101,17.21875 17.21875,17.21875 9.50865,0 17.21875,-7.7101 17.21875,-17.21875 0,-7.5033 -4.80329,-13.86048 -11.5,-16.21875 l 0,-18.71875 -0.0312,0 c 0,-3.13035 -2.55715,-5.65625 -5.6875,-5.65625 z"
       id="path3060-2"
       inkscape:connector-curvature="0" />
  </g>
</svg>
